<?xml version="1.0" encoding="utf-8"?>
<!-- Svg Vector Icons : http://www.onlinewebfonts.com/icon -->
<!DOCTYPE svg PUBLIC "-//W3C//DTD SVG 1.1//EN" "http://www.w3.org/Graphics/SVG/1.1/DTD/svg11.dtd">
<svg version="1.1" xmlns="http://www.w3.org/2000/svg" xmlns:xlink="http://www.w3.org/1999/xlink" x="0px" y="0px" viewBox="0 0 1000 1000" enable-background="new 0 0 1000 1000" xml:space="preserve">
<metadata> Svg Vector Icons : http://www.onlinewebfonts.com/icon </metadata>
<g><g transform="matrix(1 0 0 -1 0 1920)"><path d="M500,930c-44.3,0-87.6,5.9-130,17.6c-42.4,11.7-81.5,28.1-117.2,49.2c-35.7,21.1-68.7,46.7-99,77c-30.3,30.3-55.9,63.3-77,99c-21.1,35.7-37.5,74.8-49.2,117.2c-11.7,42.4-17.6,85.7-17.6,130c0,33.3,3.3,66.2,10,98.6c6.7,32.4,16.2,63.1,28.6,92c12.4,28.9,27.5,56.6,45.4,83c17.9,26.4,37.7,50.6,59.6,72.6s46.1,41.9,72.6,59.8c26.5,17.9,54.3,33,83.2,45.4c28.9,12.4,59.6,21.9,92,28.6c32.4,6.7,65.3,10,98.6,10c29.6,0,58.9-2.6,87.8-7.8c28.9-5.2,56.6-12.8,83-22.8c26.4-10,51.9-22.1,76.4-36.2c24.5-14.1,47.3-30.3,68.4-48.6s40.7-38,59-59.2c18.3-21.2,34.5-44,48.6-68.4c14.1-24.4,26.2-49.8,36.2-76.2c10-26.4,17.6-54.1,22.8-83c5.2-28.9,7.8-58.2,7.8-87.8c0-44.3-5.9-87.6-17.6-130c-11.7-42.4-28.1-81.5-49.2-117.2c-21.1-35.7-46.7-68.7-77-99c-30.3-30.3-63.3-55.9-99-77c-35.7-21.1-74.8-37.5-117.2-49.2C587.6,935.9,544.3,930,500,930z M500,1060c28,0,55.5,3.1,82.4,9.4c26.9,6.3,52.2,15.3,75.8,27.2s45.9,26,66.8,42.4s39.6,35.1,56,56s30.5,43.2,42.4,66.8c11.9,23.6,20.9,48.9,27.2,75.8c6.3,26.9,9.4,54.4,9.4,82.4c0,32.5-4.3,64.3-13,95.4c-8.7,31.1-20.7,59.8-36.2,86.2c-15.5,26.4-34.3,50.7-56.4,72.8c-22.1,22.1-46.4,40.9-72.8,56.4c-26.4,15.5-55.1,27.5-86.2,36.2s-62.9,13-95.4,13c-32.5,0-64.3-4.3-95.4-13c-31.1-8.7-59.8-20.7-86.2-36.2c-26.4-15.5-50.7-34.3-72.8-56.4s-40.9-46.4-56.4-72.8c-15.5-26.4-27.5-55.1-36.2-86.2c-8.7-31.1-13-62.9-13-95.4c0-32.5,4.3-64.3,13-95.4c8.7-31.1,20.7-59.8,36.2-86.2c15.5-26.4,34.3-50.7,56.4-72.8s46.4-40.9,72.8-56.4c26.4-15.5,55.1-27.5,86.2-36.2C435.7,1064.3,467.5,1060,500,1060z M423.2,1200l-85.2,85.2c-8.3,8.3-14.4,14.5-18.4,18.8l-62.8,62.8c-2.7,2.4-4,5.4-4,9c0,3.6,1.3,6.7,4,9.4l85.2,85.2c2.7,2.7,5.8,4,9.4,4c3.6,0,6.7-1.3,9.4-4l62.8-62.4c2.4-2.7,5.4-4,9-4c3.6,0,6.7,1.3,9.4,4l195.6,195.6c2.7,2.7,5.9,4,9.6,4c3.7,0,6.8-1.3,9.2-4l86-84.4c2.7-2.7,4-5.8,4-9.4s-1.3-6.7-4-9.4L442,1200c-2.7-2.4-5.8-3.6-9.4-3.6C429,1196.4,425.9,1197.6,423.2,1200z"/></g></g>
</svg>